<?xml version="1.0" encoding="UTF-8"?>
<svg version="1.1" xmlns="http://www.w3.org/2000/svg" width="1402" height="1122">
<path d="M0 0 C7.33981588 1.08738013 12.76216427 7.36996294 17.4140625 12.8125 C23.19617181 20.73698448 26.74227711 28.68792817 27.375 38.5 C28.10799316 38.47381592 28.84098633 38.44763184 29.59619141 38.4206543 C64.47955753 37.34602244 96.88854089 45.69578575 122.89160156 70.07470703 C131.5476813 78.39172373 138.24295709 87.166597 144.375 97.5 C144.72546387 98.08402588 145.07592773 98.66805176 145.43701172 99.26977539 C147.55005807 102.85743955 149.24195033 106.38837096 150.625 110.3125 C150.96015625 111.24707031 151.2953125 112.18164062 151.640625 113.14453125 C152.375 115.5 152.375 115.5 152.375 117.5 C151.35019531 117.26216797 151.35019531 117.26216797 150.3046875 117.01953125 C143.80215124 115.86641482 135.50257232 114.94860336 129.375 117.875 C122.99466161 123.45779609 119.88540094 130.06787568 119.1015625 138.41015625 C118.76310446 148.91537296 121.33990355 157.53779782 128.375 165.5 C133.58512584 168.97341723 140.22992018 169.26687367 146.375 168.5 C148.83313873 167.64567058 151.10336404 166.63581798 153.4296875 165.47265625 C155.375 164.5 155.375 164.5 158.375 163.5 C156.26046256 207.72907489 156.26046256 207.72907489 151.375 217.5 C152.09679443 217.49476318 152.81858887 217.48952637 153.56225586 217.48413086 C156.81232849 217.46342642 160.06238728 217.45036082 163.3125 217.4375 C164.44880859 217.42912109 165.58511719 217.42074219 166.75585938 217.41210938 C167.83544922 217.40888672 168.91503906 217.40566406 170.02734375 217.40234375 C171.02757568 217.39710693 172.02780762 217.39187012 173.05834961 217.38647461 C175.375 217.5 175.375 217.5 176.375 218.5 C178.13790071 218.65379375 179.90464385 218.76400578 181.671875 218.85546875 C188.29452378 219.36030358 194.29030911 220.88050028 200.625 222.8125 C201.64851563 223.10833984 202.67203125 223.40417969 203.7265625 223.70898438 C209.61344608 225.46067274 215.01913153 227.49240799 220.375 230.5 C220.99391113 230.84538818 221.61282227 231.19077637 222.25048828 231.54663086 C230.03936963 235.98798072 237.56820837 240.63330721 244.375 246.5 C245.79039062 247.71623047 245.79039062 247.71623047 247.234375 248.95703125 C267.55577315 266.80005146 283.29629496 291.82545323 287.015625 318.9765625 C287.29949961 321.39466934 287.29949961 321.39466934 287.88696289 323.26098633 C289.0386856 328.54485274 288.5598311 334.17932056 288.5625 339.5625 C288.57474609 340.83544922 288.58699219 342.10839844 288.59960938 343.41992188 C288.61486157 353.31859598 287.84069681 362.46117302 284.08984375 371.6796875 C283.24884094 373.72934987 283.24884094 373.72934987 282.4375 376.875 C277.49506811 393.73741469 268.38162065 408.77767124 256.375 421.5 C255.90336426 422.01256348 255.43172852 422.52512695 254.94580078 423.05322266 C235.0705204 444.55729337 205.84190079 459.60055673 176.375 461.5 C166.70829784 461.79804031 157.04312407 461.69368032 147.375 461.5 C147.39530273 462.07137695 147.41560547 462.64275391 147.43652344 463.23144531 C147.53865966 468.24028921 147.12656438 472.42189299 145.625 477.25 C145.25375 478.4565625 144.8825 479.663125 144.5 480.90625 C144.12875 482.0921875 143.7575 483.278125 143.375 484.5 C143.08625 485.5415625 142.7975 486.583125 142.5 487.65625 C136.29591372 509.5921265 124.92689634 529.86235575 109.375 546.5 C108.88306152 547.03431641 108.39112305 547.56863281 107.88427734 548.11914062 C95.28252992 561.69087244 80.80286925 572.03979989 64.375 580.5 C63.32183594 581.05300781 62.26867187 581.60601563 61.18359375 582.17578125 C33.63065134 595.79390221 3.2163049 597.1226736 -26.91740823 596.93835568 C-31.2748101 596.91640957 -35.63222186 596.91868935 -39.9896698 596.91746521 C-48.68014608 596.9112437 -57.37042218 596.88314714 -66.06082278 596.84762424 C-76.42326025 596.80595707 -86.78571275 596.78451271 -97.14820921 596.7635076 C-112.07368338 596.73274798 -126.99912405 596.69500159 -141.92454529 596.6446228 C-172.9030149 596.54049361 -203.88123113 596.47431113 -234.85985051 596.44065382 C-239.02607389 596.43612227 -243.19229722 596.43154695 -247.35852051 596.42692566 C-248.18992271 596.42600613 -249.02132492 596.42508659 -249.87792113 596.42413919 C-272.6485374 596.39865059 -295.4191203 596.35511852 -318.18970108 596.30806828 C-321.55743655 596.3011542 -324.9251721 596.29428635 -328.29290771 596.28744507 C-329.1249729 596.28574561 -329.95703809 596.28404615 -330.81431738 596.28229519 C-343.39836457 596.25684476 -355.98239982 596.24123521 -368.56646729 596.2303772 C-383.03817329 596.21784308 -397.50977659 596.19083521 -411.98141962 596.14588851 C-420.1836403 596.12083315 -428.38570692 596.10677645 -436.58796658 596.10848108 C-442.79339009 596.10851694 -448.99858476 596.08749466 -455.20393825 596.0588125 C-457.71097875 596.05039462 -460.21805252 596.04853769 -462.72510076 596.05420268 C-498.05672359 596.12340207 -532.94212304 588.26978835 -561.625 566.5 C-563.19507813 565.34951172 -563.19507813 565.34951172 -564.796875 564.17578125 C-576.48033992 555.51123284 -586.74349846 546.08316048 -595.625 534.5 C-596.36363281 533.57703125 -597.10226562 532.6540625 -597.86328125 531.703125 C-623.4407563 499.01343323 -634.53799219 455.84729187 -629.9375 414.8125 C-624.56997333 373.0554784 -602.96414505 333.10732368 -569.67919922 306.97216797 C-538.71455023 283.46708269 -505.10644118 273.00392939 -466.625 270.5 C-466.09326172 268.69595703 -466.09326172 268.69595703 -465.55078125 266.85546875 C-449.03262436 213.08302616 -412.52457498 168.06754767 -362.88671875 141.47265625 C-331.4029621 125.02562372 -296.72310223 117.28115782 -261.3125 117.25 C-260.26610855 117.24898788 -260.26610855 117.24898788 -259.19857788 117.24795532 C-225.59241703 117.29915869 -191.82449395 124.98073766 -162.125 140.9375 C-161.39031494 141.32929443 -160.65562988 141.72108887 -159.89868164 142.12475586 C-154.77697987 144.86263714 -149.68436741 147.64835655 -144.625 150.5 C-144.625 151.16 -144.625 151.82 -144.625 152.5 C-142.645 153.16 -140.665 153.82 -138.625 154.5 C-138.625 155.16 -138.625 155.82 -138.625 156.5 C-136.4725522 157.78893351 -136.4725522 157.78893351 -133.625 158.5 C-130.46333063 157.63165738 -130.46333063 157.63165738 -127.125 156 C-120.74940279 153.2187918 -114.31669346 151.08199485 -107.625 149.1875 C-106.74134766 148.93355469 -105.85769531 148.67960938 -104.94726562 148.41796875 C-100.17828633 147.08540658 -95.54475814 146.06817859 -90.625 145.5 C-90.46008057 144.96858398 -90.29516113 144.43716797 -90.12524414 143.88964844 C-77.81154807 104.62371423 -58.14341593 70.40768446 -20.8125 50.625 C-15.17538563 47.69995138 -9.48611479 44.95101164 -3.625 42.5 C-12.76899188 36.60720523 -21.87555816 35.18278941 -32.65625 35.00390625 C-35.625 34.5 -35.625 34.5 -37.5390625 32.59375 C-38.625 30.5 -38.625 30.5 -38.5 28.4375 C-37.48022837 26.17943425 -36.55019989 25.0618218 -34.625 23.5 C-31.20397248 22.83301209 -27.72895646 22.97724478 -24.25 23 C-23.25500488 23.00572021 -22.26000977 23.01144043 -21.23486328 23.01733398 C-8.09240802 23.33493441 1.30471638 28.69314792 12.375 35.5 C13.035 35.83 13.695 36.16 14.375 36.5 C9.81051381 26.47554258 5.3742099 18.23367597 -2.625 10.5 C-4.625 8.5 -4.625 8.5 -4.875 5.5 C-4.55115827 1.61389927 -3.83520858 0.73051592 0 0 Z " fill="#E2ECFA" transform="translate(897.625,120.5)"/>
<path d="M0 0 C7.33981588 1.08738013 12.76216427 7.36996294 17.4140625 12.8125 C23.19617181 20.73698448 26.74227711 28.68792817 27.375 38.5 C28.10799316 38.47381592 28.84098633 38.44763184 29.59619141 38.4206543 C64.47955753 37.34602244 96.88854089 45.69578575 122.89160156 70.07470703 C131.5476813 78.39172373 138.24295709 87.166597 144.375 97.5 C144.72546387 98.08402588 145.07592773 98.66805176 145.43701172 99.26977539 C147.55005807 102.85743955 149.24195033 106.38837096 150.625 110.3125 C150.96015625 111.24707031 151.2953125 112.18164062 151.640625 113.14453125 C152.375 115.5 152.375 115.5 152.375 117.5 C151.69179687 117.34144531 151.00859375 117.18289062 150.3046875 117.01953125 C143.80215124 115.86641482 135.50257232 114.94860336 129.375 117.875 C122.99466161 123.45779609 119.88540094 130.06787568 119.1015625 138.41015625 C118.76310446 148.91537296 121.33990355 157.53779782 128.375 165.5 C133.58512584 168.97341723 140.22992018 169.26687367 146.375 168.5 C148.83313873 167.64567058 151.10336404 166.63581798 153.4296875 165.47265625 C155.375 164.5 155.375 164.5 158.375 163.5 C158.09217696 177.58458719 156.54527771 190.77196023 153.375 204.5 C152.84680664 204.10312988 152.31861328 203.70625977 151.77441406 203.29736328 C150.32359179 202.20808459 148.87206804 201.11973972 147.41992188 200.03222656 C145.96009553 198.93840252 144.50267465 197.84136509 143.046875 196.7421875 C128.82909618 186.62791395 110.20572161 185.82356155 93.375 188.125 C68.75401441 192.94801499 48.13366076 206.32200389 30.375 223.5 C29.44945312 224.37398437 28.52390625 225.24796875 27.5703125 226.1484375 C10.14494327 242.98144291 -2.36618747 263.68561492 -12.625 285.5 C-12.955 286.16 -13.285 286.82 -13.625 287.5 C-26.825 287.5 -40.025 287.5 -53.625 287.5 C-54.945 282.22 -56.265 276.94 -57.625 271.5 C-67.86671698 236.7130489 -85.17744399 205.46917502 -110.625 179.5 C-111.33011719 178.75621094 -112.03523437 178.01242187 -112.76171875 177.24609375 C-118.76855022 171.01994591 -125.42331296 165.3011247 -132.625 160.5 C-132.295 159.51 -131.965 158.52 -131.625 157.5 C-129.01541832 156.37388593 -126.50603986 155.43670144 -123.8125 154.5625 C-122.65488159 154.17336426 -122.65488159 154.17336426 -121.47387695 153.77636719 C-119.91510987 153.2533758 -118.35480752 152.73493695 -116.79296875 152.22119141 C-114.93672254 151.60369689 -113.09200155 150.95174014 -111.25 150.29296875 C-104.45462444 147.88024897 -97.76828414 146.4625702 -90.625 145.5 C-90.46008057 144.96858398 -90.29516113 144.43716797 -90.12524414 143.88964844 C-77.81154807 104.62371423 -58.14341593 70.40768446 -20.8125 50.625 C-15.17538563 47.69995138 -9.48611479 44.95101164 -3.625 42.5 C-12.76899188 36.60720523 -21.87555816 35.18278941 -32.65625 35.00390625 C-35.625 34.5 -35.625 34.5 -37.5390625 32.59375 C-38.625 30.5 -38.625 30.5 -38.5 28.4375 C-37.48022837 26.17943425 -36.55019989 25.0618218 -34.625 23.5 C-31.20397248 22.83301209 -27.72895646 22.97724478 -24.25 23 C-23.25500488 23.00572021 -22.26000977 23.01144043 -21.23486328 23.01733398 C-8.09240802 23.33493441 1.30471638 28.69314792 12.375 35.5 C13.035 35.83 13.695 36.16 14.375 36.5 C9.81051381 26.47554258 5.3742099 18.23367597 -2.625 10.5 C-4.625 8.5 -4.625 8.5 -4.875 5.5 C-4.55115827 1.61389927 -3.83520858 0.73051592 0 0 Z " fill="#61A4F2" transform="translate(897.625,120.5)"/>
<path d="M0 0 C55.44 0 110.88 0 168 0 C166.41836392 3.95409019 164.7440888 7.49367831 162.734375 11.2265625 C162.41849426 11.81488861 162.10261353 12.40321472 161.77716064 13.0093689 C160.77058264 14.88258994 159.7603238 16.75379713 158.75 18.625 C158.08700373 19.85794612 157.42424136 21.09101805 156.76171875 22.32421875 C156.43619019 22.92917175 156.11066162 23.53412476 155.77526855 24.15740967 C155.12550674 25.36552888 154.47681623 26.57422492 153.82922363 27.7835083 C152.3068062 30.61756037 150.75390618 33.42529463 149.14257812 36.20996094 C148.58505859 37.1796582 148.02753906 38.14935547 147.453125 39.1484375 C146.95458008 39.99325684 146.45603516 40.83807617 145.94238281 41.70849609 C144.84183153 44.38460344 145.19052022 45.31073613 146 48 C147.23139709 48.00364563 148.46279419 48.00729126 149.73150635 48.01104736 C161.32674155 48.0479616 172.9217103 48.10569519 184.51674271 48.18390274 C190.47813277 48.22344026 196.43937373 48.25559801 202.40087891 48.27099609 C208.15227401 48.28612123 213.90325935 48.32049326 219.65447235 48.36830902 C221.85050651 48.38316559 224.04659916 48.39104345 226.24268341 48.39188385 C229.31490454 48.39424236 232.38598295 48.42123258 235.45800781 48.45410156 C236.82502083 48.44655602 236.82502083 48.44655602 238.21965027 48.43885803 C244.36631665 48.54084661 244.36631665 48.54084661 247.55999756 50.85491943 C249.58783357 53.8756585 249.66422654 55.42476722 249 59 C247.28952008 61.29855068 245.70211904 63.13490836 243.6875 65.125 C242.58289173 66.26649992 241.47873516 67.40843708 240.375 68.55078125 C239.81167969 69.12393066 239.24835938 69.69708008 238.66796875 70.28759766 C236.11503411 72.9085408 233.65105557 75.6078268 231.1875 78.3125 C230.72964111 78.81201172 230.27178223 79.31152344 229.80004883 79.82617188 C226.72850643 83.18080317 223.71525511 86.58051554 220.734375 90.015625 C217.20499286 94.05374691 213.59365774 98.01914681 210 102 C208.49971321 103.66640851 206.99971128 105.33307353 205.5 107 C203.2282871 109.52500493 200.95564586 112.04913304 198.6796875 114.5703125 C195.30087292 118.31564256 191.93104035 122.06518207 188.625 125.875 C186.14962442 128.72282793 183.6144409 131.50744833 181.04956055 134.27490234 C176.98629983 138.66057775 173.05883605 143.08487342 169.3125 147.75 C166.68149119 151.02123654 164.01229834 154.07682291 161 157 C158.06825239 159.84568849 155.48237622 162.8034452 152.9375 166 C148.39956628 171.65860604 143.4911011 176.91343241 138.49194336 182.16601562 C134.77891495 186.07229263 131.1750361 190.04767187 127.64306641 194.1184082 C125.30931865 196.79094816 122.90780532 199.39390483 120.5 202 C117.47995128 205.2778141 114.47795863 208.56583268 111.5625 211.9375 C109.00284366 214.89614353 106.36418962 217.76869882 103.69580078 220.62866211 C98.57641926 226.11644178 93.72200294 231.71942968 89.01953125 237.57421875 C86.71800104 240.33872603 84.25390084 242.83682074 81.671875 245.3359375 C79.27251672 247.72408382 77.08612601 250.27829375 74.875 252.83984375 C72.81811321 255.20954873 70.72593741 257.54427256 68.625 259.875 C67.86445312 260.71933594 67.10390625 261.56367187 66.3203125 262.43359375 C64.79834913 264.11697748 63.27243374 265.79679835 61.7421875 267.47265625 C57.80800795 271.79751217 54.02338374 276.18024477 50.375 280.75 C41.73288403 291.36444557 41.73288403 291.36444557 36.3125 292.625 C33.0122043 291.73302819 31.89641949 290.87974812 30 288 C29.25811392 281.53344751 30.40608248 274.94263317 31.35546875 268.5546875 C31.49730591 267.56307617 31.63914307 266.57146484 31.78527832 265.54980469 C32.08951182 263.42603193 32.39646129 261.30264675 32.7059021 259.17962646 C33.52501047 253.55907204 34.32482315 247.93577594 35.125 242.3125 C35.2861882 241.18254608 35.4473764 240.05259216 35.6134491 238.88839722 C37.07867528 228.5635264 38.39908297 218.22314758 39.6875 207.875 C41.09564033 196.6039257 42.66623788 185.39704524 44.61083984 174.20336914 C45.81296474 167.25658212 46.86611498 160.29882193 47.8125 153.3125 C48.01673584 151.86713867 48.01673584 151.86713867 48.22509766 150.39257812 C48.34288574 149.49603516 48.46067383 148.59949219 48.58203125 147.67578125 C48.68749268 146.89114502 48.7929541 146.10650879 48.90161133 145.2980957 C49.01220082 142.71502164 48.54119497 140.51952353 48 138 C46.60724602 137.99786247 46.60724602 137.99786247 45.18635559 137.99568176 C36.43155576 137.97784453 27.6772611 137.93620963 18.92270374 137.86790943 C14.42195295 137.83363366 9.92154179 137.80852858 5.4206543 137.80444336 C1.07611332 137.8001616 -3.26766142 137.77170982 -7.61196327 137.72656822 C-9.26848193 137.71358916 -10.92509227 137.70928702 -12.5816555 137.71384621 C-14.90447865 137.71874971 -17.22506007 137.69267609 -19.54760742 137.65942383 C-20.23093643 137.66804947 -20.91426544 137.67667511 -21.61830139 137.68556213 C-25.3463543 137.59622305 -26.96909338 137.02367181 -29.96282959 134.73072815 C-32 132 -32 132 -32.40150452 129.86502075 C-32.28455734 129.13370941 -32.16761017 128.40239807 -32.04711914 127.64892578 C-31.84011887 126.33725433 -31.84011887 126.33725433 -31.62893677 124.99908447 C-30.33440258 118.82609922 -28.82996564 112.72041615 -27.24609375 106.6171875 C-26.86246509 105.11647066 -26.47951002 103.6155815 -26.09718323 102.11453247 C-25.0889844 98.16326719 -24.07228023 94.21424157 -23.05352783 90.26568604 C-22.04861548 86.36581364 -21.05071787 82.46415021 -20.05273438 78.5625 C-18.86800424 73.93157568 -17.68288361 69.30075702 -16.49423218 64.6708374 C-13.54680669 53.18366663 -10.65411196 41.68349822 -7.80381775 30.17184448 C-5.29867454 20.08575376 -2.64579534 10.05402231 0 0 Z " fill="#FDA93C" transform="translate(540,716)"/>
<path d="M0 0 C4.08331765 -0.02950374 8.1666072 -0.04696535 12.25 -0.0625 C13.95929688 -0.07506836 13.95929688 -0.07506836 15.703125 -0.08789062 C27.81162652 -0.12228978 38.63517783 0.77012777 50.25 4.3125 C51.27351563 4.60833984 52.29703125 4.90417969 53.3515625 5.20898438 C59.23844608 6.96067274 64.64413153 8.99240799 70 12 C70.61891113 12.34538818 71.23782227 12.69077637 71.87548828 13.04663086 C79.66436963 17.48798072 87.19320837 22.13330721 94 28 C94.94359375 28.81082031 95.8871875 29.62164062 96.859375 30.45703125 C117.18077315 48.30005146 132.92129496 73.32545323 136.640625 100.4765625 C136.92449961 102.89466934 136.92449961 102.89466934 137.51196289 104.76098633 C138.6636856 110.04485274 138.1848311 115.67932056 138.1875 121.0625 C138.19974609 122.33544922 138.21199219 123.60839844 138.22460938 124.91992188 C138.23986157 134.81859598 137.46569681 143.96117302 133.71484375 153.1796875 C132.87384094 155.22934987 132.87384094 155.22934987 132.0625 158.375 C127.12006811 175.23741469 118.00662065 190.27767124 106 203 C105.52836426 203.51256348 105.05672852 204.02512695 104.57080078 204.55322266 C84.68076487 226.07325812 55.47915481 241.06728136 26 243 C16.66710285 243.29578823 7.33403842 243.19450069 -2 243 C-2.029729 241.78606567 -2.029729 241.78606567 -2.06005859 240.54760742 C-3.44040301 186.78662432 -16.1025066 145.80565646 -55.36523438 107.47363281 C-57.14113306 105.801124 -57.14113306 105.801124 -60 104 C-59.44495754 100.35257814 -58.22618728 99.01773969 -55.375 96.75 C-31.7098704 76.86122087 -15.99315635 45.68023896 -5.8125 17.17675781 C-5.08288265 15.22204978 -4.25055969 13.30641185 -3.40625 11.3984375 C-1.84090614 7.61552318 -0.90921079 3.98653961 0 0 Z " fill="#B0CDEA" transform="translate(1048,339)"/>
<path d="M0 0 C0.96035156 -0.020625 1.92070313 -0.04125 2.91015625 -0.0625 C9.34228206 -0.09740977 14.4055169 0.9367874 20.375 3.25 C21.57125 3.58 22.7675 3.91 24 4.25 C39.1615197 8.74230213 51.19769347 19.16838651 58.76025391 32.96850586 C65.88936998 46.67933028 66.8538415 63.70344936 62.33984375 78.53515625 C62.02144531 79.43105469 61.70304688 80.32695312 61.375 81.25 C61.04628906 82.21808594 60.71757813 83.18617188 60.37890625 84.18359375 C53.13392521 103.46176128 38.46599831 117.93751445 20.375 127.25 C18.375 126.25 18.375 126.25 17.64819336 124.52612305 C17.42268799 123.77886963 17.19718262 123.03161621 16.96484375 122.26171875 C16.57087402 120.99980713 16.57087402 120.99980713 16.16894531 119.71240234 C15.74500488 118.33882568 15.74500488 118.33882568 15.3125 116.9375 C5.22690686 85.67216126 -11.62690887 57.71950149 -34.625 34.25 C-35.33011719 33.50621094 -36.03523437 32.76242187 -36.76171875 31.99609375 C-42.76855022 25.76994591 -49.42331296 20.0511247 -56.625 15.25 C-56.295 14.26 -55.965 13.27 -55.625 12.25 C-53.01537638 11.12386783 -50.5061988 10.18637265 -47.8125 9.3125 C-47.0400293 9.05380127 -46.26755859 8.79510254 -45.47167969 8.52856445 C-43.91201622 8.00678672 -42.3509831 7.48908435 -40.78857422 6.97558594 C-38.94146741 6.35613193 -37.11115973 5.68695765 -35.28515625 5.0078125 C-28.92320017 2.66797899 -23.116404 1.71327168 -16.33984375 1.42578125 C-10.8167141 1.06816854 -5.68142956 0.02978469 0 0 Z " fill="#3684ED" transform="translate(821.625,265.75)"/>
<path d="M0 0 C7.84519698 3.34669264 15.73791688 6.92036917 20.67724609 14.14208984 C20.89995123 16.96302163 20.24848028 18.38044427 18.56396484 20.62646484 C10.18369018 29.72133657 -1.49246935 37.32478674 -12.32275391 43.14208984 C-13.07943359 43.55330078 -13.83611328 43.96451172 -14.61572266 44.38818359 C-21.34706726 47.73647721 -26.76844162 47.79371376 -34.07275391 46.45458984 C-40.55547327 43.83656856 -44.20789109 38.18601665 -47.32275391 32.14208984 C-50.55709645 23.92146921 -50.60652003 14.47024713 -47.36572266 6.20849609 C-37.07735319 -14.17557674 -17.2033863 -6.90890808 0 0 Z " fill="#FBB751" transform="translate(1065.32275390625,242.85791015625)"/>
<path d="M0 0 C55.44 0 110.88 0 168 0 C166.47903372 3.80241571 164.85989732 7.36474615 163 11 C162.03901901 10.99777939 161.07803802 10.99555878 160.0879364 10.99327087 C147.62113432 10.96545035 135.15432838 10.94804526 122.6875 10.9375 C121.68274879 10.93664398 120.67799759 10.93578796 119.64279938 10.93490601 C89.71657391 10.91242115 59.79813817 11.06325203 29.875 11.5 C28.64530802 11.51793673 28.64530802 11.51793673 27.39077377 11.53623581 C17.59366913 11.68009111 7.7967571 11.83408664 -2 12 C-1.85831863 10.56208484 -1.71148957 9.1246763 -1.5625 7.6875 C-1.48128906 6.88699219 -1.40007813 6.08648438 -1.31640625 5.26171875 C-1 3 -1 3 0 0 Z " fill="#E8A038" transform="translate(540,716)"/>
<path d="M0 0 C6.8822118 0.55501708 13.62136348 2.36162191 18.375 7.625 C22.62738574 13.40136213 24.86059576 19.08017051 23.875 26.3125 C22.29572279 33.61132168 17.9973721 39.63446265 11.734375 43.703125 C5.83819262 46.63060017 0.15016207 47.5862913 -6.22265625 45.6875 C-12.46382586 42.99381601 -16.64215871 38.13225583 -20.29296875 32.515625 C-22.46088429 26.77522893 -22.19987776 18.57712872 -20.28515625 12.76171875 C-17.05133665 7.15425378 -11.70176776 2.53383533 -5.5625 0.4375 C-3.70504796 0.34224605 -1.85066255 0.18506625 0 0 Z " fill="#28292A" transform="translate(947.125,236.6875)"/>
<path d="M0 0 C1.4540625 0.0309375 1.4540625 0.0309375 2.9375 0.0625 C2.34937127 6.11487929 -1.22513093 8.46376125 -5.60546875 12.29296875 C-30.67007797 32.86883499 -30.67007797 32.86883499 -44.89453125 32.28125 C-51.30370854 31.63455824 -54.94802344 30.04318215 -59.0625 25.0625 C-63.14157935 19.68134164 -64.41887568 15.75759212 -65.0625 9.0625 C-64.37849121 9.0123877 -63.69448242 8.96227539 -62.98974609 8.91064453 C-42.93073782 9.24287471 -42.93073782 9.24287471 -25.0625 4.0625 C-23.42091378 3.87480502 -21.77339362 3.73828371 -20.125 3.625 C-13.36983343 3.06869217 -6.23616721 0.12726872 0 0 Z " fill="#F89E40" transform="translate(1082.0625,257.9375)"/>
<path d="M0 0 C0.66 0.33 1.32 0.66 2 1 C0.88321917 2.6721852 -0.24366352 4.33762803 -1.375 6 C-2.00148438 6.928125 -2.62796875 7.85625 -3.2734375 8.8125 C-3.84320312 9.534375 -4.41296875 10.25625 -5 11 C-5.66 11 -6.32 11 -7 11 C-5.72278474 6.00724943 -3.82669043 3.42388092 0 0 Z " fill="#303640" transform="translate(934,241)"/>
<path d="M0 0 C0.33 0 0.66 0 1 0 C1.02690104 2.79173055 1.04679053 5.58320348 1.0625 8.375 C1.07087891 9.1690625 1.07925781 9.963125 1.08789062 10.78125 C1.11328125 16.7734375 1.11328125 16.7734375 0 19 C-0.66 19 -1.32 19 -2 19 C-1.34 12.73 -0.68 6.46 0 0 Z " fill="#FDBC69" transform="translate(585,886)"/>
<path d="M0 0 C-0.33 3.3 -0.66 6.6 -1 10 C-1.33 10 -1.66 10 -2 10 C-2 8.02 -2 6.04 -2 4 C-3.65 4.33 -5.3 4.66 -7 5 C-2.25 0 -2.25 0 0 0 Z " fill="#64A6E1" transform="translate(1056,284)"/>
<path d="M0 0 C-1.38782485 0.8466034 -2.78569397 1.67675339 -4.1875 2.5 C-4.96480469 2.9640625 -5.74210938 3.428125 -6.54296875 3.90625 C-9.24103386 5.10729647 -11.0806982 5.20741043 -14 5 C-10.63156097 2.05261585 -4.40469071 -2.20234535 0 0 Z " fill="#73AEF4" transform="translate(893,166)"/>
<path d="M0 0 C2.50298434 2.93828597 3.46930939 5.17902761 4 9 C2.02 7.68 0.04 6.36 -2 5 C-1.34 3.35 -0.68 1.7 0 0 Z " fill="#DDECFB" transform="translate(909,150)"/>
</svg>
